<?xml version="1.0" standalone="no"?>
<!DOCTYPE svg PUBLIC "-//W3C//DTD SVG 20010904//EN"
 "http://www.w3.org/TR/2001/REC-SVG-20010904/DTD/svg10.dtd">
<svg version="1.0" xmlns="http://www.w3.org/2000/svg"
 width="1280.000000pt" height="1006.000000pt" viewBox="0 0 1280.000000 1006.000000"
 preserveAspectRatio="xMidYMid meet">
<metadata>
Created by potrace 1.15, written by Peter Selinger 2001-2017
</metadata>
<g transform="translate(0.000000,1006.000000) scale(0.100000,-0.100000)"
fill="#000000" stroke="none">
<path d="M12345 9816 c-86 -16 -1735 -403 -1741 -408 -3 -3 -94 -248 -203
-544 l-198 -539 -4978 -3 c-2738 -1 -4981 -4 -4984 -7 -2 -3 290 -1264 650
-2803 l655 -2797 3704 0 3703 0 1107 3018 c609 1660 1109 3019 1111 3021 2 1
310 76 684 166 374 90 686 165 693 168 6 2 12 11 12 18 0 14 -160 718 -163
719 -1 1 -24 -3 -52 -9z"/>
<path d="M3144 2115 c-214 -39 -371 -122 -520 -276 -191 -198 -272 -415 -261
-694 10 -240 88 -428 249 -601 208 -222 494 -328 798 -296 439 46 782 379 841
818 42 320 -82 633 -336 847 -206 173 -503 251 -771 202z"/>
<path d="M7208 2115 c-134 -23 -238 -64 -353 -140 -149 -99 -271 -240 -344
-397 -66 -140 -76 -190 -76 -388 0 -192 13 -259 74 -395 60 -131 178 -275 305
-372 299 -226 754 -241 1072 -34 370 240 527 678 393 1096 -87 271 -318 502
-594 594 -153 50 -317 63 -477 36z"/>
</g>
</svg>
